# xmcd
#
# Track frame offsets:
#	150
#	15224
#	30340
#	46424
#	62953
#	79432
#	97525
#	112920
#	129564
#	144275
#	157572
#	169924
#	185761
#
# Disc length: 2666 seconds
#
# Revision: 1
# Processed by: cddbd v1.5.2PL0 Copyright (c) Steve Scherf et al.
# Submitted via: audiograbber 1.83.01
#
DISCID=940a680d
DTITLE=Adam Brand - There Will Be Love
DYEAR=2012
DGENRE=Country
TTITLE0=There Will Be Love
TTITLE1=I Was Here
TTITLE2=Looking Like Never
TTITLE3=Feel The Fire
TTITLE4=Wake Up Loving You
TTITLE5=Some Just Live
TTITLE6=God and Angels
TTITLE7=This Round's On Me
TTITLE8=Come On
TTITLE9=She Got Away
TTITLE10=Tom Petty
TTITLE11=Unafraid
TTITLE12=Faith In You
EXTD=
EXTT0=
EXTT1=
EXTT2=
EXTT3=
EXTT4=
EXTT5=
EXTT6=
EXTT7=
EXTT8=
EXTT9=
EXTT10=
EXTT11=
EXTT12=
PLAYORDER=
